# xmcd
#
# Track frame offsets: 
#        150
#        13995
#        28782
#        43765
#        61397
#        76310
#        102702
#        118725
#        132702
#        152380
#        165220
#        182327
#        195430
#        211445
#        226647
#        240320
#
# Disc length: 3366 seconds
#
# Revision: 0
# Processed by: cddbd v1.5.1PL2 Copyright (c) Steve Scherf et al.
# Submitted via: ExactAudioCopy v0.95a5
#
DISCID=ca0d2410
DTITLE=Various Artist - Latin nights
DYEAR=2004
DGENRE=Latin
TTITLE0=Maria Elena - Los Soneros
TTITLE1=One Note Samba - Miranda Carvalho
TTITLE2=Vaya Con Dios - Francisco Garcia
TTITLE3=Desafinando - Dario Alvarez
TTITLE4=Guantanamera - Los Soneros
TTITLE5=Girl From Ipanema - Miranda Carvalho
TTITLE6=La Paloma - Los Soneros
TTITLE7=The Look of Love - Andrea Gelosa
TTITLE8=Razon de Vivir - Goya and Carmina
TTITLE9=Tristeza - Luiz Laurindo
TTITLE10=Quando caliente el Sol - Dario Alvarez
TTITLE11=The Shadow of Your Smile - Miranda Carvalho
TTITLE12=Palomita - Los Soneros
TTITLE13=Manha De Carnaval - Luiz Laurindo
TTITLE14=La Playa - Francisco Garcia
TTITLE15=Meditation - Miranda Carvalho
EXTD=
EXTT0=
EXTT1=
EXTT2=
EXTT3=
EXTT4=
EXTT5=
EXTT6=
EXTT7=
EXTT8=
EXTT9=
EXTT10=
EXTT11=
EXTT12=
EXTT13=
EXTT14=
EXTT15=
PLAYORDER=
